<svg width="41" height="41" viewBox="0 0 41 41" fill="none" xmlns="http://www.w3.org/2000/svg">
<path fill-rule="evenodd" clip-rule="evenodd" d="M0.5 20.7476C0.5 9.70186 9.45431 0.747559 20.5 0.747559C31.5457 0.747559 40.5 9.70186 40.5 20.7476C40.5 31.7933 31.5457 40.7476 20.5 40.7476C9.45431 40.7476 0.5 31.7933 0.5 20.7476Z" fill="#3B5998"/>
<rect x="0.5" y="0.747559" width="40" height="40" rx="5" fill="#3B5998"/>
<path fill-rule="evenodd" clip-rule="evenodd" d="M22.5847 32.5071V21.6261H25.5883L25.9864 17.8764H22.5847L22.5898 15.9996C22.5898 15.0217 22.6827 14.4977 24.0873 14.4977H25.9651V10.7476H22.961C19.3527 10.7476 18.0826 12.5666 18.0826 15.6255V17.8768H15.8334V21.6265H18.0826V32.5071H22.5847Z" fill="white"/>
</svg>
