<svg width="41" height="41" viewBox="0 0 41 41" fill="none" xmlns="http://www.w3.org/2000/svg">
<path fill-rule="evenodd" clip-rule="evenodd" d="M0.5 20.7476C0.5 9.70186 9.45431 0.747559 20.5 0.747559C31.5457 0.747559 40.5 9.70186 40.5 20.7476C40.5 31.7933 31.5457 40.7476 20.5 40.7476C9.45431 40.7476 0.5 31.7933 0.5 20.7476Z" fill="url(#paint0_linear_3446_45357)"/>
<rect x="0.5" y="0.747559" width="40" height="40" rx="5" fill="url(#paint1_linear_3446_45357)"/>
<path fill-rule="evenodd" clip-rule="evenodd" d="M15.0233 20.7477C15.0233 17.7225 17.476 15.2699 20.5011 15.2699C23.5262 15.27 25.9781 17.7226 25.9781 20.7477C25.9781 23.7728 23.5263 26.2244 20.5011 26.2244C17.476 26.2244 15.0233 23.7728 15.0233 20.7477ZM24.0567 20.748C24.0567 18.7842 22.4647 17.1924 20.5011 17.1924C18.5373 17.1924 16.9455 18.7842 16.9455 20.748C16.9455 22.7116 18.5373 24.3036 20.5011 24.3036C22.4647 24.3036 24.0567 22.7116 24.0567 20.748Z" fill="white"/>
<path d="M24.9149 15.0541C24.9149 14.3472 25.4883 13.7745 26.1949 13.7745C26.9016 13.7745 27.4749 14.3474 27.4749 15.0541C27.4749 15.7608 26.9016 16.3341 26.1949 16.3341C25.4883 16.3341 24.9149 15.7608 24.9149 15.0541Z" fill="white"/>
<path fill-rule="evenodd" clip-rule="evenodd" d="M16.1028 10.1455C17.2406 10.0937 17.6041 10.0811 20.501 10.0811H20.4977C23.3955 10.0811 23.7577 10.0937 24.8955 10.1455C26.0311 10.1975 26.8067 10.3773 27.4867 10.6411C28.1889 10.9133 28.7822 11.2777 29.3756 11.8711C29.9689 12.464 30.3334 13.0591 30.6067 13.7606C30.8689 14.4389 31.0489 15.214 31.1023 16.3496C31.1534 17.4874 31.1667 17.8509 31.1667 20.7478C31.1667 23.6448 31.1534 24.0074 31.1023 25.1452C31.0489 26.2803 30.8689 27.0557 30.6067 27.7341C30.3334 28.4355 29.9689 29.0306 29.3756 29.6235C28.7829 30.2168 28.1887 30.5822 27.4873 30.8546C26.8087 31.1184 26.0327 31.2982 24.8971 31.3502C23.7593 31.4019 23.3968 31.4146 20.4997 31.4146C17.603 31.4146 17.2397 31.4019 16.1019 31.3502C14.9665 31.2982 14.1912 31.1184 13.5125 30.8546C12.8114 30.5822 12.2163 30.2168 11.6236 29.6235C11.0305 29.0306 10.666 28.4355 10.3934 27.7339C10.1298 27.0557 9.95004 26.2806 9.89782 25.145C9.84626 24.0072 9.83337 23.6448 9.83337 20.7478C9.83337 17.8509 9.84671 17.4871 9.8976 16.3493C9.94871 15.2142 10.1287 14.4389 10.3932 13.7604C10.6665 13.0591 11.0309 12.464 11.6243 11.8711C12.2172 11.278 12.8123 10.9135 13.5139 10.6411C14.1921 10.3773 14.9672 10.1975 16.1028 10.1455ZM20.1456 12.0032C19.9299 12.0031 19.73 12.003 19.5442 12.0033V12.0007C17.5562 12.0029 17.1748 12.0162 16.1908 12.0607C15.1508 12.1084 14.5861 12.2818 14.2101 12.4284C13.7123 12.6222 13.3568 12.8533 12.9835 13.2267C12.6101 13.6 12.3786 13.9556 12.1852 14.4533C12.0392 14.8293 11.8654 15.3938 11.8179 16.4338C11.7668 17.5583 11.7566 17.8943 11.7566 20.7427C11.7566 23.5912 11.7668 23.929 11.8179 25.0535C11.8652 26.0935 12.0392 26.6579 12.1852 27.0335C12.379 27.5315 12.6101 27.8861 12.9835 28.2595C13.3568 28.6328 13.7123 28.8639 14.2101 29.0573C14.5864 29.2033 15.1508 29.3771 16.1908 29.4251C17.3153 29.4762 17.6528 29.4873 20.5011 29.4873C23.3491 29.4873 23.6869 29.4762 24.8114 29.4251C25.8514 29.3775 26.4163 29.2042 26.7918 29.0575C27.2898 28.8642 27.6443 28.633 28.0176 28.2597C28.3909 27.8866 28.6225 27.5321 28.8158 27.0344C28.9618 26.6588 29.1356 26.0944 29.1832 25.0543C29.2343 23.9299 29.2454 23.5921 29.2454 20.7454C29.2454 17.8987 29.2343 17.5609 29.1832 16.4365C29.1358 15.3965 28.9618 14.832 28.8158 14.4565C28.6221 13.9587 28.3909 13.6031 28.0176 13.2298C27.6445 12.8564 27.2896 12.6253 26.7918 12.432C26.4158 12.286 25.8514 12.1122 24.8114 12.0647C23.6867 12.0135 23.3491 12.0033 20.5011 12.0033L20.1456 12.0032Z" fill="white"/>
<defs>
<linearGradient id="paint0_linear_3446_45357" x1="34.1016" y1="40.7476" x2="7.9684" y2="0.747559" gradientUnits="userSpaceOnUse">
<stop stop-color="#E09B3D"/>
<stop offset="0.3" stop-color="#C74C4D"/>
<stop offset="0.6" stop-color="#C21975"/>
<stop offset="1" stop-color="#7024C4"/>
</linearGradient>
<linearGradient id="paint1_linear_3446_45357" x1="34.1016" y1="40.7476" x2="7.9684" y2="0.747559" gradientUnits="userSpaceOnUse">
<stop stop-color="#E09B3D"/>
<stop offset="0.3" stop-color="#C74C4D"/>
<stop offset="0.6" stop-color="#C21975"/>
<stop offset="1" stop-color="#7024C4"/>
</linearGradient>
</defs>
</svg>
