<svg width="41" height="41" viewBox="0 0 41 41" fill="none" xmlns="http://www.w3.org/2000/svg">
<path fill-rule="evenodd" clip-rule="evenodd" d="M20.5 40.7476C31.5457 40.7476 40.5 31.7933 40.5 20.7476C40.5 9.70186 31.5457 0.747559 20.5 0.747559C9.45431 0.747559 0.5 9.70186 0.5 20.7476C0.5 31.7933 9.45431 40.7476 20.5 40.7476Z" fill="#675DA9"/>
<rect x="0.5" y="0.747559" width="40" height="40" rx="5" fill="#675DA9"/>
<path d="M31.731 15.7192L31.724 15.6909C31.1567 13.3784 28.5993 10.897 26.2507 10.3807L26.2242 10.3752C22.4255 9.64446 18.5737 9.64446 14.7758 10.3752L14.7485 10.3807C12.4007 10.897 9.84331 13.3784 9.27525 15.6909L9.26902 15.7192C8.56772 18.9487 8.56772 22.2237 9.26902 25.4532L9.27525 25.4815C9.81907 27.6953 12.186 30.0627 14.447 30.7138V33.2951C14.447 34.2294 15.5761 34.6883 16.2182 34.0141L18.8118 31.2955C19.3743 31.3272 19.9372 31.3449 20.5 31.3449C22.4122 31.3449 24.3252 31.1626 26.2242 30.7972L26.2507 30.7917C28.5993 30.2755 31.1567 27.794 31.724 25.4815L31.731 25.4533C32.4323 22.2237 32.4323 18.9487 31.731 15.7192ZM29.6785 24.9849C29.2998 26.4935 27.358 28.3691 25.8151 28.7157C23.7953 29.103 21.7595 29.2685 19.7257 29.2117C19.6852 29.2106 19.6464 29.2264 19.6181 29.2556C19.3295 29.5544 17.7244 31.2159 17.7244 31.2159L15.7101 33.3006C15.5628 33.4554 15.3041 33.3501 15.3041 33.1363V28.8601C15.3041 28.7894 15.2541 28.7294 15.1853 28.7158L15.1841 28.7156C13.6413 28.3691 11.7002 26.4934 11.3207 24.9848C10.6895 22.0657 10.6895 19.1065 11.3207 16.1874C11.7002 14.6787 13.6413 12.8031 15.1841 12.4566C18.7117 11.7801 22.2883 11.7801 25.8151 12.4566C27.3587 12.8031 29.2998 14.6787 29.6785 16.1874C30.3104 19.1066 30.3104 22.0658 29.6785 24.9849Z" fill="white"/>
<path d="M23.8563 26.9586C23.6191 26.886 23.393 26.8372 23.1831 26.7494C21.0078 25.8393 19.0058 24.6652 17.42 22.8654C16.5182 21.842 15.8124 20.6865 15.2158 19.4637C14.9328 18.8838 14.6944 18.2812 14.4513 17.6825C14.2297 17.1366 14.5561 16.5726 14.8999 16.1612C15.2224 15.7752 15.6374 15.4797 16.0869 15.262C16.4377 15.0921 16.7837 15.19 17.0399 15.4899C17.5938 16.1381 18.1026 16.8195 18.5145 17.571C18.7679 18.0332 18.6984 18.5981 18.2392 18.9127C18.1276 18.9891 18.026 19.0788 17.922 19.1652C17.8308 19.2409 17.745 19.3173 17.6826 19.4198C17.5683 19.6073 17.5629 19.8284 17.6364 20.0322C18.2026 21.6012 19.1569 22.8213 20.723 23.4784C20.9736 23.5835 21.2253 23.706 21.514 23.672C21.9975 23.615 22.1541 23.0803 22.4929 22.8008C22.824 22.5278 23.2472 22.5242 23.604 22.7518C23.9608 22.9795 24.3067 23.224 24.6505 23.471C24.9879 23.7135 25.3239 23.9507 25.6353 24.2271C25.9346 24.493 26.0376 24.8417 25.8691 25.2024C25.5605 25.8631 25.1115 26.4127 24.4638 26.7636C24.281 26.8625 24.0625 26.8946 23.8563 26.9586C24.0625 26.8946 23.6191 26.8859 23.8563 26.9586ZM20.506 14.5066C23.3513 14.587 25.6883 16.4911 26.1891 19.3277C26.2745 19.811 26.3048 20.3052 26.3428 20.7957C26.3588 21.0021 26.2429 21.1981 26.0221 21.2008C25.794 21.2035 25.6914 21.0111 25.6765 20.8048C25.6473 20.3966 25.6269 19.9865 25.5711 19.5816C25.2766 17.4442 23.5864 15.676 21.4767 15.2965C21.1592 15.2394 20.8343 15.2244 20.5127 15.1904C20.3094 15.1688 20.0431 15.1564 19.9981 14.9016C19.9603 14.6879 20.1391 14.5178 20.3409 14.5069C20.3957 14.5038 20.4509 14.5063 20.506 14.5066C23.3513 14.587 20.4509 14.5063 20.506 14.5066Z" fill="white"/>
<path d="M24.83 20.159C24.8254 20.1948 24.8229 20.2791 24.8021 20.3584C24.7266 20.6465 24.2935 20.6825 24.1937 20.3918C24.1642 20.3055 24.1598 20.2074 24.1596 20.1145C24.1586 19.5068 24.0276 18.8997 23.7237 18.371C23.4113 17.8276 22.934 17.3707 22.3742 17.0943C22.0357 16.9272 21.6697 16.8233 21.2987 16.7614C21.1365 16.7343 20.9726 16.7179 20.8097 16.6951C20.6123 16.6674 20.5068 16.5405 20.5162 16.3443C20.5249 16.1604 20.6582 16.0282 20.8569 16.0395C21.5098 16.0769 22.1405 16.2192 22.7211 16.5292C23.9016 17.1596 24.5759 18.1547 24.7728 19.4834C24.7817 19.5436 24.796 19.6032 24.8005 19.6637C24.8117 19.8129 24.8187 19.9622 24.83 20.159C24.8254 20.1948 24.8187 19.9622 24.83 20.159Z" fill="white"/>
<path d="M23.0602 20.0896C22.8222 20.0939 22.6948 19.9611 22.6702 19.741C22.6532 19.5875 22.6397 19.432 22.6034 19.2827C22.5318 18.9887 22.3769 18.7162 22.1316 18.536C22.0158 18.4509 21.8845 18.3889 21.7471 18.3489C21.5725 18.2981 21.3911 18.3121 21.2169 18.269C21.0277 18.2222 20.9231 18.0678 20.9528 17.8888C20.9799 17.7259 21.137 17.5987 21.3135 17.6116C22.4167 17.6919 23.2051 18.267 23.3176 19.5766C23.3256 19.669 23.3349 19.7667 23.3146 19.8551C23.2797 20.0064 23.1686 20.0822 23.0602 20.0896C23.1686 20.0822 22.8222 20.0939 23.0602 20.0896Z" fill="white"/>
</svg>
