<svg width="41" height="41" viewBox="0 0 41 41" fill="none" xmlns="http://www.w3.org/2000/svg">
<path fill-rule="evenodd" clip-rule="evenodd" d="M20.5 40.7476C31.5457 40.7476 40.5 31.7933 40.5 20.7476C40.5 9.70186 31.5457 0.747559 20.5 0.747559C9.45431 0.747559 0.5 9.70186 0.5 20.7476C0.5 31.7933 9.45431 40.7476 20.5 40.7476Z" fill="#179CDE"/>
<rect x="0.5" y="0.747559" width="40" height="40" rx="5" fill="#179CDE"/>
<path d="M17.1736 24.8152L26.4473 16.4465C26.8543 16.0852 26.3584 15.9091 25.8181 16.2367L14.3726 23.4576L9.42873 21.9145C8.36108 21.5876 8.35341 20.854 9.66843 20.3265L28.9334 12.898C29.8133 12.4986 30.6626 13.1094 30.3267 14.4561L27.0458 29.9166C26.8167 31.0152 26.1529 31.278 25.2332 30.7705L20.2355 27.0781L17.8333 29.4139C17.8257 29.4213 17.8182 29.4286 17.8107 29.4359C17.542 29.6975 17.3197 29.9139 16.8333 29.9139L17.1736 24.8152Z" fill="white"/>
</svg>
